<?xml version="1.0" encoding="utf-8"?>
<!-- Generator: IcoMoon.io -->
<!DOCTYPE svg PUBLIC "-//W3C//DTD SVG 1.1//EN" "http://www.w3.org/Graphics/SVG/1.1/DTD/svg11.dtd"> <svg version="1.1"
    id="Layer_1" xmlns="http://www.w3.org/2000/svg" xmlns:xlink="http://www.w3.org/1999/xlink" x="0px" y="0px"
    width="48px" height="48px" viewBox="0 0 48 48" enable-background="new 0 0 16 16" xml:space="preserve"
    fill="#3bb34a">
    <path
        d="M 39 48 l -6 0 l 0 -6 l 6 0 c 1.7 0 3 -1.3 3 -3 L 42 12 L 6 12 l 0 27 c 0 1.7 1.3 3 3 3 l 6 0 l 0 6 L 9 48 c -5 0 -9 -4 -9 -9 L 0 9 c 0 -5 4 -9 9 -9 l 30 0 c 5 0 9 4 9 9 l 0 30 C 48 44 44 48 39 48 z M 9 3 C 7.3 3 6 4.3 6 6 s 1.3 3 3 3 s 3 -1.3 3 -3 S 10.7 3 9 3 z M 21.9 24.9 C 22.5 24.3 23.2 24 24 24 s 1.5 0.3 2.1 0.9 l 6 6 c 0.9 0.9 1.1 2.1 0.7 3.3 C 32.3 35.3 31.2 36 30 36 L 27 36 l 0 9 c 0 1.7 -1.3 3 -3 3 c -1.7 0 -3 -1.3 -3 -3 l 0 -9 L 18 36 c -1.2 0 -2.3 -0.7 -2.8 -1.9 c -0.5 -1.1 -0.2 -2.4 0.7 -3.3 L 21.9 24.9 z">
    </path>
</svg>